<svg id="studiomeal" xmlns="http://www.w3.org/2000/svg" viewBox="0 0 128.7 61.06"><title>studiomeal</title><path d="M253.39,413.48c-1.66,5.81-10.88,7.82-16.15,4.92a8.8,8.8,0,0,1-3.64-3.95c-.58-1.16-.35-3.18,1.28-3.56a2.87,2.87,0,0,1,3.29,1.27,6.34,6.34,0,0,0,2.91,2.6c3.41,1.16,7.32-.62,7.32-3.6,0-2.44-1.47-3.14-3.68-3.68-2.44-.51-5.15-.31-7.52-1.36-4.72-2-5-8.68-1.55-11.93,1.67-1.47,4-2.05,6.78-2.17,3.1-.12,6.51.62,8.33,2.17,1.32,1.05,3.1,3.68,1.12,4.88-1.62,1.05-3-.62-4.06-1.39a8.4,8.4,0,0,0-5.5-1.17c-2.25.28-4.07,1.48-3.88,3.8.12,1.67,1.9,2.21,3.41,2.4,2.29.31,4.69.27,6.9,1.13a7.4,7.4,0,0,1,4.61,4.49A9.3,9.3,0,0,1,253.39,413.48Z" transform="translate(-233.29 -390.41)"/><path d="M277.1,394.42a6.71,6.71,0,0,1-.08.93,1.87,1.87,0,0,1-.5.82,2.7,2.7,0,0,1-.85.34,8.13,8.13,0,0,1-1.12.24,10.3,10.3,0,0,1-1.13,0h-2c-.93,0-1.82,0-2.72,0,.08,3.18,0,7.05,0,15.58v2.94a3.51,3.51,0,0,0,0,.58,4.58,4.58,0,0,1,0,.62q-.06.34-.12.81a2.67,2.67,0,0,1-.16.74c-.11.12-.15.19-.15.23l-.12.23a1.85,1.85,0,0,1-.73.74,2.82,2.82,0,0,1-1.9.19,1.78,1.78,0,0,1-1-.34,2.16,2.16,0,0,1-.5-.7,2.39,2.39,0,0,1-.27-.82,2.52,2.52,0,0,1-.12-.73V397c-.62,0-4.41,0-5.11-.16a10.52,10.52,0,0,1-1.51-.27,2.4,2.4,0,0,1-1.28-.73,1.71,1.71,0,0,1-.43-1.13,3.21,3.21,0,0,1,.08-.89A1.41,1.41,0,0,1,256,393a3.54,3.54,0,0,1,1.12-.54,4.64,4.64,0,0,1,1.17-.24c.42,0,.81,0,1.27,0,1.82,0,3.37,0,5.16,0,3,0,6,0,8.91.07a5.41,5.41,0,0,1,1.89.39,2.48,2.48,0,0,1,1.17.74A1.57,1.57,0,0,1,277.1,394.42Z" transform="translate(-233.29 -390.41)"/><path d="M300.54,411.89a17.14,17.14,0,0,1-1.44,3.26c-1.62,2.78-5,4.26-8.05,4.41a9.63,9.63,0,0,1-7.29-2.75c-3.09-3-3.56-6.85-3.52-11.12,0-2-.08-6.23,0-8.32,0-1.36-.12-3.26.74-4.5a3.11,3.11,0,0,1,4.57.08,2.43,2.43,0,0,1,.38,1.32c.24,3.44,0,9.14,0,10.77,0,3.06.2,5.69,1.32,7.32a3.92,3.92,0,0,0,3.91,1.62,4.58,4.58,0,0,0,3.53-2.48,6.19,6.19,0,0,0,.62-2,135.34,135.34,0,0,0,.5-15,2.78,2.78,0,0,1,2.91-2.56,2.91,2.91,0,0,1,2.63,2.37C301.93,399.26,301.62,408.25,300.54,411.89Z" transform="translate(-233.29 -390.41)"/><path d="M324.88,411.49a11.94,11.94,0,0,1-6.19,6.61c-3.19,1.35-7,1-10.45.38a12.25,12.25,0,0,1-3.43-1,2.23,2.23,0,0,1-.92-.66,1.58,1.58,0,0,1-.32-.8,3.36,3.36,0,0,1-.11-.9,5.32,5.32,0,0,1,.09-.69l5.12-21.52A4.39,4.39,0,0,1,309,392a2.68,2.68,0,0,1,.44-.81,1.43,1.43,0,0,1,.56-.54,2.4,2.4,0,0,1,1-.25c.32,0,.62.23,1,.13l6.26,1.65c6.6,1.73,9,8.79,8.16,14.24A23.94,23.94,0,0,1,324.88,411.49Zm-4.65-10.74c-.83-2.55-4.05-3.75-7-4.49-.3,1.44-.62,2.76-1,4.27-.47,1.8-.88,3.53-1.26,5.11l-1.83,7.69c3.11.66,5.93,1,8.5-1.4C320.33,409.33,321.36,404.2,320.23,400.75Z" transform="translate(-233.29 -390.41)"/><path d="M330.61,415.49l0-3.06,0-5.69c0-1.63,0-3.41,0-5.27s0-3.14.08-4.92v-.15c0-.51.08-1.09.08-1.63a4.5,4.5,0,0,1,.42-1.51,2.35,2.35,0,0,1,.82-.93,2.82,2.82,0,0,1,1.2-.31,7.87,7.87,0,0,1,1,.08,1.59,1.59,0,0,1,.9.46,1.48,1.48,0,0,1,.42.62,5.83,5.83,0,0,1,.23.89,8.63,8.63,0,0,1,.08,1c0,.35,0,.62,0,.93v.66l-.23,20.1v.39c0,.16,0,.39-.08.7a7.45,7.45,0,0,1-.27.85,2,2,0,0,1-.58.7,1.81,1.81,0,0,1-1,.42,3.06,3.06,0,0,1-2-.19,1.85,1.85,0,0,1-.66-.77.35.35,0,0,1-.12-.24c0-.07-.11-.15-.15-.23a2.91,2.91,0,0,1-.16-.85c0-.23-.07-.5-.11-.78a1.78,1.78,0,0,1,0-.65Z" transform="translate(-233.29 -390.41)"/><path d="M358.92,397.69a20.28,20.28,0,0,1,3,12,12.8,12.8,0,0,1-.64,3.29,9,9,0,0,1-4.91,5.26,10.7,10.7,0,0,1-10.09-.66c-3.72-2.42-5.61-7.49-6.12-11.58-.48-3.77.59-9.44,4.53-11.89C351,390.16,356,393,358.92,397.69Zm-4.08,2.72c-1.76-3.05-4.3-4.51-7.74-2-2,1.51-2.21,4.75-1.87,7.21.34,2.66,1.36,6,3.43,7.64a5.11,5.11,0,0,0,5.24.73,4.71,4.71,0,0,0,2.64-3.41,7.91,7.91,0,0,0,.3-2A16,16,0,0,0,354.84,400.41Z" transform="translate(-233.29 -390.41)"/><path d="M256.49,449.7a1.93,1.93,0,0,1-.5.7,1.72,1.72,0,0,1-1,.42,2.6,2.6,0,0,1-2-.15c-1.44-.89-1.24-2.71-1.28-4.07v-3l0-5.93c0-1.66,0-1.51,0-3.33a17.39,17.39,0,0,0,0-2c-4,6.7-4.92,7.74-6.39,7.86-.85.08-1.7-.89-2.17-1.47a42.13,42.13,0,0,1-4.49-6.74c0,.19-.08,16.46-.23,16.5a2.51,2.51,0,0,1-3.88,2.13,2.85,2.85,0,0,1-1.08-2c0-.69-.08-1.39-.08-2.09l0-3,0-6v-5.19q0-3.37.23-6.63a4,4,0,0,1,.35-1.51,2,2,0,0,1,.81-.93A2.45,2.45,0,0,1,236,423a8,8,0,0,1,1,.08c1,.19,1.74,1.51,2.4,2.21a36,36,0,0,1,2.56,3.83c1.35,2.17,2.36,4,3.29,5.31a12.16,12.16,0,0,0,1.12-1.67c1.09-1.66,2-3,3.68-5.85.74-1.2,2.37-3.87,4-3.91a7.39,7.39,0,0,1,1,.08,1.56,1.56,0,0,1,.89.43,1.92,1.92,0,0,1,.46.65,7.09,7.09,0,0,1,.2.86,8.65,8.65,0,0,1,.08,1c0,2.87.07,5.74.07,8.6,0,3.49,0,7.36,0,10.85,0,.74.08,1.59,0,2.4A6.19,6.19,0,0,1,256.49,449.7Z" transform="translate(-233.29 -390.41)"/><path d="M265.33,427.81l-.08,6.09h1.55c2.09,0,3.56,0,5.58,0h.19c.62,0,1.2,0,1.78,0a8.51,8.51,0,0,1,1.74.35,2.43,2.43,0,0,1,1.09.7,1.82,1.82,0,0,1,.39,1.12,3.36,3.36,0,0,1-.08.89,1.2,1.2,0,0,1-.5.78,1.42,1.42,0,0,1-.74.39,6.78,6.78,0,0,1-1,.19,4.77,4.77,0,0,1-1.08.12h-1.82l-7.17,0-.08,7.59,7.71.08h1.82c.39,0,.78,0,1.09,0s.73.12,1,.2a3,3,0,0,1,.78.42,1.71,1.71,0,0,1,.5.82,2.89,2.89,0,0,1,0,.85,1.74,1.74,0,0,1-.39,1.12,2.15,2.15,0,0,1-1.08.7,4.49,4.49,0,0,1-1.78.35c-.59,0-1.2,0-1.79.08h-.23q-3,0-6.27,0c-2,0-2.21,0-3.84,0a2.37,2.37,0,0,1-1.47-.31,1.61,1.61,0,0,1-.66-.74.42.42,0,0,1-.12-.23,1.82,1.82,0,0,0-.15-.23,3,3,0,0,1-.15-.82c0-.23-.08-.5-.12-.77V447c0-.2,0-.43,0-.62v-3l.08-5.58v-5.15c0-1.86,0-3.14.07-4.84v-.2c0-.54.08-1,.08-1.55a3.92,3.92,0,0,1,.43-1.51,1.89,1.89,0,0,1,.81-.93,2.21,2.21,0,0,1,1.2-.35,1.75,1.75,0,0,1,.47,0v0c1.85,0,2,0,4.1,0s3.84,0,5.81,0h.16c.58,0,1.2,0,1.78.08a5.21,5.21,0,0,1,1.7.35,2.25,2.25,0,0,1,1.09.66,1.93,1.93,0,0,1,.35,1.08,2.89,2.89,0,0,1-.08.86,1.37,1.37,0,0,1-.47.81,4,4,0,0,1-.73.39c-.31.07-.66.11-1,.15a5.33,5.33,0,0,1-1.12.08h-1.75l-7.74,0Z" transform="translate(-233.29 -390.41)"/><path d="M304.26,448.89a1.35,1.35,0,0,1-.27.85,1.89,1.89,0,0,1-.77.66,3,3,0,0,1-2.06.38,2.23,2.23,0,0,1-1-.5c-.08-.08-.16-.12-.2-.19s-.11-.16-.19-.2a4.28,4.28,0,0,1-.54-.73c-.12-.24-.24-.47-.39-.74a1.89,1.89,0,0,1-.27-.58,3.72,3.72,0,0,1-.2-.62l-.81-1.9c-3.52,0-7.13,0-10.65,0l-.82,1.9c-.07.19-.11.43-.19.62a3.77,3.77,0,0,1-.27.58c-.16.27-.27.5-.43.74a2.65,2.65,0,0,1-.5.73c-.08,0-.15.16-.19.2s-.12.11-.2.19a2.26,2.26,0,0,1-1,.5,3,3,0,0,1-2.05-.38,1.89,1.89,0,0,1-.77-.66,1.35,1.35,0,0,1-.27-.85,6.76,6.76,0,0,1,.07-.93,3.39,3.39,0,0,1,.2-.7c.07-.23.11-.31.11-.35l8.06-19.83.23-.62c.12-.31.27-.54.39-.89a4.53,4.53,0,0,1,.43-.89,4.15,4.15,0,0,1,.58-.82,2,2,0,0,1,.66-.5,4,4,0,0,1,2.51,0,2,2,0,0,1,.66.5,6.92,6.92,0,0,1,.58.82,4.53,4.53,0,0,1,.43.89c.12.35.27.58.39.89l.23.62,8.06,19.83a1.92,1.92,0,0,0,.11.35,3.39,3.39,0,0,1,.2.7A8.81,8.81,0,0,1,304.26,448.89ZM295,438.47c-.66-1.48-1.36-3.1-2.14-4.77-.19-.46-.42-1-.62-1.43-.15.46-.38,1-.58,1.43-.77,1.67-1.47,3.29-2.13,4.77l-.69,1.7h6.85Z" transform="translate(-233.29 -390.41)"/><path d="M356.25,440.14a2.54,2.54,0,0,0-2.46,0,7.76,7.76,0,0,0-1.09-4.35,7.6,7.6,0,0,0-5.64-3.25,7.52,7.52,0,0,0-5.84,1.82c-3.56,3-4.76,9-5.13,11.76-2,.12-16.64.83-22.69-4,0,0-3.32-2.41-2-12.16,0,0,1.39-6.55-1.25-6.85,0,0-3.15-.39-3.86,3.26,0,0-2.2,12.48,2.11,18.58,0,0,4.3,7.31,27.81,6.4,0,0,14.93-.57,19.36-6.21C355.55,445.19,358.49,441.65,356.25,440.14Zm-7.43-4.7a4.52,4.52,0,0,1,1.92,1.65,6.73,6.73,0,0,1,.53,4.81,24.29,24.29,0,0,1-6.36,2.77C345.7,441.6,347.09,437.35,348.82,435.44Zm-6.09.72a5.18,5.18,0,0,1,3.6-1.27c-2.08,3.05-3.4,8-4,10.42-1.18.25-2.47.47-3.89.63C338.88,443.3,340,438.5,342.73,436.16Z" transform="translate(-233.29 -390.41)"/></svg>