<svg id="face" xmlns="http://www.w3.org/2000/svg" viewBox="0 0 571 625.5">
  <title>face_compound</title>
  <g>
    <circle cx="175" cy="380.5" r="42.5"/>
    <circle cx="397" cy="380.5" r="42.5"/>
    <path d="M393.52,585.75H393a167,167,0,0,1-124.3-55.6l-22.36,20A197.08,197.08,0,0,0,393,615.75h.52a197.06,197.06,0,0,0,146.66-65.59l-22.36-20A167,167,0,0,1,393.52,585.75Z" transform="translate(-107 -64)"/>
    <path d="M678,262.5C678,194.29,614.2,139,535.5,139a164.06,164.06,0,0,0-35.68,3.9C483.86,97.64,424,64,352.5,64,269.57,64,202.22,109.3,201,165.49c-55.71,19.82-94,61.19-94,109,0,24.27,9.88,46.88,26.89,65.86a271,271,0,1,0,517.39-5.86C668.09,314.23,678,289.37,678,262.5ZM556.84,581.84A231,231,0,0,1,162.5,418.5a232.84,232.84,0,0,1,5.5-50.44C197.17,385.51,234.63,396,275.5,396c62,0,116.14-24.14,145.41-60.09C446.87,366.3,488.53,386,535.5,386c30.7,0,59.12-8.41,82.38-22.72a232.68,232.68,0,0,1,6.62,55.22A229.49,229.49,0,0,1,556.84,581.84Z" transform="translate(-107 -64)"/>
  </g>
</svg>
